<?xml version="1.0"?>
<svg version="1.1" xmlns="http://www.w3.org/2000/svg" width="400" height="200" style="border: dashed 2px #aaa"><path fill="#000000" d="M57,92.86l-4.41,0l0,22.4l-29.54,0l0-22.4l-4.41,0l0,49.14l4.41,0l0-22.33l29.54,0l0,22.33l4.41,0l0-49.14z M72.8788,128.56q0-3.36,2.38-6.09q2.38-2.87,5.74-2.87l0.91,0l13.09,0l0-4.34l-13.09,0l-0.91,0q-3.57-0.7-5.845-3.08t-2.275-5.67q0-4.13,2.415-6.545t6.615-2.415l23.8,0l0-4.41l-23.8,0q-5.39,0-9.38,3.99q-3.99,3.85-3.99,9.38q0,3.5,1.33,6.37t3.92,4.13q-2.59,1.89-3.92,4.97t-1.33,6.58q0,5.46,3.99,9.31q4.06,4.06,9.38,4.06l23.8,0l0-4.62l-23.8,0q-4.2,0-6.615-2.38t-2.415-6.37z M150.4276,93l-37.94,0l0,4.27l17.22,0l0,44.87l4.34,0l0-44.87l16.38,0l0-4.27z M158.6064,123.8l20.37,0l0-4.41l-20.37,0l0,4.41z M220.2652,92.79l-4.48,0l0,32.55q0,5.25-3.5,8.75t-8.75,3.5t-8.75-3.5q-3.57-3.43-3.57-8.75l0-7.91l-4.34,0l0,7.91q0,7.07,5.04,11.9q4.97,4.76,11.62,4.76q7.28,0,12.04-4.76q4.69-4.69,4.69-11.9l0-32.55z M250.354,93q-7.91,0-13.58,5.67q-5.74,5.74-5.74,13.65l0,10.57q0,7.77,5.74,13.51t13.58,5.74q7.91,0,13.65-5.74q5.67-5.67,5.67-13.51l0-10.57q0-7.98-5.67-13.65t-13.65-5.67z M265.334,112.32l0,10.57q0,6.37-4.48,10.71q-4.41,4.2-10.5,4.2t-10.43-4.2q-4.48-4.34-4.48-10.71l0-10.57q0-5.88,4.48-10.5q4.48-4.48,10.43-4.48q5.88,0,10.5,4.48q4.48,4.62,4.48,10.5z M291.2928,98.11l26.39,0l0-5.32l-26.39,0q-5.18,0-8.68,4.06q-3.57,4.13-3.57,10.01q0,5.32,3.57,9.24q3.5,3.99,8.68,3.99l7,0l7.14,0q3.15,0,5.6,2.66q2.31,2.8,2.31,6.09q0,3.92-2.275,6.37t-5.635,2.45l-26.39,0l0,4.34l26.39,0q5.25,0,8.75-3.64t3.5-9.52q0-5.32-3.5-9.24q-3.57-3.92-8.75-3.92l-7.14,0l-7,0q-3.22,0-5.53-2.8q-2.38-2.59-2.38-6.02q0-3.92,2.275-6.335t5.635-2.415z M366.3216,92.86l-4.41,0l0,22.4l-29.54,0l0-22.4l-4.41,0l0,49.14l4.41,0l0-22.33l29.54,0l0,22.33l4.41,0l0-49.14z M377.6504,142.07l4.41,0l0-49.21l-4.41,0l0,49.21z"/><path fill="#" d=""/></svg>
