<?xml version="1.0" standalone="no"?>
<!DOCTYPE svg PUBLIC "-//W3C//DTD SVG 20010904//EN"
 "http://www.w3.org/TR/2001/REC-SVG-20010904/DTD/svg10.dtd">
<svg version="1.0" xmlns="http://www.w3.org/2000/svg"
 width="300.000000pt" height="245.000000pt" viewBox="0 0 300.000000 245.000000"
 preserveAspectRatio="xMidYMid meet">
<metadata>
Created by potrace 1.10, written by Peter Selinger 2001-2011
</metadata>
<g transform="translate(0.000000,245.000000) scale(0.100000,-0.100000)"
fill="#000000" stroke="none">
<path d="M905 1486 c-53 -17 -105 -45 -84 -46 9 0 33 7 52 15 20 8 53 15 73
15 24 0 34 4 32 13 -6 17 -26 18 -73 3z"/>
<path d="M990 1482 c0 -10 108 -47 115 -40 6 6 -86 48 -104 48 -6 0 -11 -4
-11 -8z"/>
<path d="M1310 1245 l0 -215 55 0 55 0 0 70 c0 56 -3 70 -15 70 -12 0 -15 -13
-15 -55 0 -54 0 -55 -30 -55 l-30 0 0 185 0 185 30 0 c30 0 30 -1 30 -55 0
-42 3 -55 15 -55 12 0 15 14 15 70 l0 70 -55 0 -55 0 0 -215z"/>
<path d="M1560 1380 l0 -80 -95 0 -95 0 0 61 c0 37 -4 58 -10 54 -5 -3 -10
-35 -10 -71 l0 -64 115 0 115 0 0 90 c0 53 -4 90 -10 90 -6 0 -10 -33 -10 -80z"/>
<path d="M1600 1370 c0 -53 4 -90 10 -90 6 0 10 31 10 74 0 41 5 78 10 81 7 4
10 -65 10 -200 0 -158 3 -206 12 -203 13 5 20 266 11 376 -5 50 -6 52 -34 52
l-29 0 0 -90z"/>
<path d="M1700 1245 l0 -215 135 0 135 0 0 55 0 55 -85 0 c-78 0 -85 2 -85 20
0 11 -4 20 -10 20 -5 0 -10 -13 -10 -30 l0 -30 85 0 85 0 0 -30 0 -30 -115 0
-115 0 0 200 c0 127 -4 200 -10 200 -6 0 -10 -78 -10 -215z"/>
<path d="M1740 1350 l0 -110 80 0 c47 0 80 4 80 10 0 6 -30 10 -70 10 l-70 0
0 85 0 85 90 0 90 0 0 -30 c0 -30 0 -30 -60 -30 -33 0 -60 -4 -60 -10 0 -6 32
-10 75 -10 l75 0 0 55 0 55 -115 0 -115 0 0 -110z"/>
<path d="M2015 1428 l2 -33 127 -3 c108 -2 126 0 126 13 0 13 -18 15 -115 15
-73 0 -115 4 -115 10 0 7 44 10 125 9 l125 -1 0 -29 0 -29 -70 0 -70 0 0 -150
c0 -93 4 -150 10 -150 6 0 10 54 10 141 l0 141 73 -4 72 -3 3 53 3 52 -154 0
-155 0 3 -32z"/>
<path d="M772 1413 c5 -25 28 -28 28 -4 0 12 -6 21 -16 21 -9 0 -14 -7 -12
-17z"/>
<path d="M1110 1410 c0 -11 7 -20 15 -20 8 0 15 9 15 20 0 11 -7 20 -15 20 -8
0 -15 -9 -15 -20z"/>
<path d="M1780 1348 l0 -68 70 0 70 0 0 -30 0 -30 -90 0 -90 0 0 -70 0 -70 95
0 c57 0 95 4 95 10 0 6 -35 10 -85 10 l-85 0 0 51 0 50 90 -3 90 -3 0 53 0 52
-70 0 -70 0 0 45 0 45 60 0 c44 0 60 4 60 14 0 10 -17 13 -70 12 l-70 -1 0
-67z"/>
<path d="M740 1348 c-22 -48 -25 -68 -10 -68 6 0 10 6 10 13 0 7 9 30 20 52
23 46 23 45 10 45 -6 0 -20 -19 -30 -42z"/>
<path d="M1150 1384 c0 -16 36 -104 42 -104 12 0 9 24 -7 63 -13 32 -35 58
-35 41z"/>
<path d="M2010 1364 c0 -13 8 -15 50 -9 l50 7 0 -166 0 -166 56 0 c47 0 55 3
50 16 -3 9 -6 78 -6 155 0 86 -4 139 -10 139 -6 0 -10 -53 -10 -140 l0 -140
-30 0 -30 0 0 160 0 160 -60 0 c-48 0 -60 -3 -60 -16z"/>
<path d="M948 1253 c-19 -56 -23 -80 -15 -85 8 -5 21 19 39 70 32 89 32 92 16
92 -7 0 -25 -35 -40 -77z"/>
<path d="M862 1278 c-18 -11 -32 -23 -32 -26 0 -4 15 -17 32 -29 39 -28 64
-14 28 15 l-24 19 22 7 c12 4 22 11 22 16 0 18 -17 18 -48 -2z"/>
<path d="M1017 1286 c-4 -10 2 -18 15 -22 l22 -7 -23 -18 c-12 -10 -20 -23
-16 -29 9 -15 17 -12 49 16 l29 26 -29 24 c-34 28 -40 29 -47 10z"/>
<path d="M1352 1249 c3 -8 43 -11 126 -10 l122 2 0 -90 c0 -54 -4 -91 -10 -91
-6 0 -10 33 -10 80 l0 81 -112 -3 -113 -3 -3 -72 c-2 -46 1 -73 8 -73 6 0 10
25 10 60 l0 60 95 0 95 0 0 -80 0 -80 30 0 30 0 0 115 0 115 -136 0 c-95 0
-135 -3 -132 -11z"/>
<path d="M720 1215 c1 -26 39 -110 46 -102 7 6 -24 96 -38 112 -5 5 -8 1 -8
-10z"/>
<path d="M1186 1215 c-4 -11 -14 -35 -22 -53 -18 -43 -18 -58 0 -42 19 15 39
74 33 97 -3 16 -5 16 -11 -2z"/>
<path d="M777 1103 c-13 -12 -7 -33 8 -33 8 0 15 9 15 20 0 20 -11 26 -23 13z"/>
<path d="M1110 1090 c0 -11 7 -20 15 -20 8 0 15 9 15 20 0 11 -7 20 -15 20 -8
0 -15 -9 -15 -20z"/>
<path d="M829 1044 c28 -20 128 -47 141 -39 21 13 8 24 -28 23 -21 0 -53 7
-70 16 -17 9 -39 16 -49 16 -14 0 -14 -3 6 -16z"/>
<path d="M1050 1045 c-14 -8 -33 -14 -42 -15 -10 0 -18 -5 -18 -11 0 -16 56
-4 94 21 25 16 27 20 11 19 -11 0 -31 -6 -45 -14z"/>
</g>
</svg>
