<?xml version="1.0"?>
<svg version="1.1" xmlns="http://www.w3.org/2000/svg" width="400" height="219" style="border: dashed 2px #aaa"><path fill="#2995e3" d="M17.345,149.7l0-5.695l5.025-2.01l0-31.49l-5.025-2.01l0-5.695l20.77-0.335l0,6.03l-5.36,2.01l0,10.72l17.554,0l0-10.72l-5.36-2.01l0-5.695l20.77-0.335l0,6.03l-5.025,2.01l0,31.49l5.025,2.01l0,5.695l-20.77,0l0-5.695l5.36-2.01l0-12.73l-17.554,0l0,12.73l5.36,2.01l0,5.695l-20.77,0z M107.76217,133.821l-22.244,0c0.402,5.36,3.484,8.509,8.107,8.509c5.561,0,11.256-3.149,11.256-3.149l2.881,5.561s-6.7,5.628-15.276,5.628c-11.524,0-17.42-6.7-17.42-18.09c0-11.725,6.633-19.43,17.889-19.43c9.983,0,15.209,6.164,15.209,15.745c0,2.546-0.402,5.025-0.402,5.226z M85.65217,127.59l12.127,0c0-3.819-1.608-6.7-5.494-6.7c-3.752,0-6.097,2.747-6.633,6.7z M141.29634,141.124l2.412,5.092c-3.283,2.412-7.035,4.154-11.39,4.154c-7.705,0-9.916-5.36-9.916-13.065l0-15.41l-6.231,0l0-6.499l6.231-0.871l0-9.246l10.05-1.809l0,11.055l9.38,0l0,7.37l-9.38,0l0,14.74c0,4.288,0.737,6.03,3.551,6.03c1.809,0,4.422-1.072,5.293-1.541z M187.79568,110.505l0,32.093c0,11.658-3.484,17.822-15.276,17.822c-2.144,0-5.092-0.469-5.092-0.469l0.871-6.901l3.216,0c4.02,0,5.896-2.211,5.896-6.432l0-36.113l-5.025-2.01l0-5.695l20.435-0.335l0,6.03z M220.25785,112.85c10.854,0,16.884,6.566,16.884,18.09c0,12.06-7.035,19.43-17.889,19.43c-10.921,0-17.085-5.695-17.085-18.425c0-12.06,7.169-19.095,18.09-19.095z M219.92285,120.89c-4.891,0-7.37,2.68-7.37,10.72c0,7.37,2.144,10.72,7.035,10.72c4.824,0,7.169-3.015,7.169-11.055c0-6.834-2.01-10.385-6.834-10.385z M252.72002,137.975l0.536,4.355s2.345,0.67,5.628,0.67c3.685,0,5.494-1.139,5.494-3.283c0-5.494-17.889-3.484-17.889-15.41c0-8.375,6.7-11.457,13.802-11.457c6.03,0,12.462,2.01,12.462,2.01l-0.268,10.05l-5.695,0l-1.005-4.02s-1.943-0.67-4.623-0.67c-2.881,0-4.623,1.206-4.623,3.417c0,5.427,17.889,3.082,17.889,14.673c0,7.705-6.231,12.06-15.41,12.06c-6.365,0-12.328-1.474-12.328-1.474l0-10.921l6.03,0z M298.18019,97.775l0,19.631c1.943-1.608,6.298-4.556,11.256-4.556c6.834,0,10.519,4.556,10.519,12.06l0,17.755l4.69,1.675l0,5.36l-18.224,0l0-5.36l3.484-1.608l0-16.214c0-3.35-1.34-5.36-4.422-5.36c-3.752,0-7.303,3.551-7.303,3.551l0,17.956l3.551,1.675l0,5.36l-18.961,0l0-5.36l5.36-1.675l0-37.654l-5.36-1.34l0-5.36z M337.47636,102.465c0-3.819,2.747-6.03,5.762-6.03c3.484,0,5.628,1.809,5.628,6.03c0,3.953-2.881,6.097-5.628,6.097c-3.618,0-5.762-2.144-5.762-6.097z M348.73236,142.665l4.69,1.675l0,5.36l-20.1,0l0-5.36l5.36-1.675l0-21.775l-5.36-1.675l0-5.36l15.41-0.335l0,29.145z"/><path fill="#" d=""/></svg>
