<?xml version="1.0" standalone="no"?>
<!DOCTYPE svg PUBLIC "-//W3C//DTD SVG 20010904//EN"
 "http://www.w3.org/TR/2001/REC-SVG-20010904/DTD/svg10.dtd">
<svg version="1.0" xmlns="http://www.w3.org/2000/svg"
 width="600.000000pt" height="600.000000pt" viewBox="0 0 600.000000 600.000000"
 preserveAspectRatio="xMidYMid meet">

<g transform="translate(0.000000,600.000000) scale(0.100000,-0.100000)"
fill="#000000" stroke="none">
<path d="M1635 3772 l-80 -16 68 -8 c93 -11 327 -103 327 -129 0 -10 -136 -62
-250 -94 -52 -15 -120 -39 -150 -52 -42 -19 -66 -23 -102 -19 -53 6 -163 58
-232 111 -39 30 -45 32 -35 13 41 -79 118 -164 204 -228 30 -22 55 -44 55 -48
0 -4 -21 -20 -47 -37 -61 -38 -172 -143 -197 -185 -10 -18 -15 -31 -10 -28 82
40 204 77 252 78 29 0 28 -14 -4 -75 -60 -114 -168 -224 -290 -297 -30 -18
-54 -35 -54 -39 0 -9 80 -64 139 -95 36 -18 75 -29 113 -32 32 -3 58 -8 58
-12 0 -21 -190 -140 -227 -140 -10 -1 9 -12 41 -25 40 -17 79 -25 118 -25 53
0 58 -2 58 -22 0 -12 -18 -37 -42 -60 -23 -21 -39 -40 -36 -43 3 -3 42 8 87
23 l82 29 18 -26 c42 -61 91 -161 91 -185 0 -15 9 -60 20 -101 11 -40 27 -118
35 -172 26 -156 55 -262 98 -348 39 -79 52 -100 201 -322 57 -85 79 -128 90
-175 8 -35 27 -101 41 -148 27 -90 65 -290 65 -345 0 -31 -2 -33 -44 -37 -46
-6 -61 -12 -171 -75 -72 -42 -141 -69 -210 -83 -22 -4 -134 -33 -250 -63 -115
-31 -239 -61 -275 -67 -36 -5 -137 -32 -225 -58 l-160 -47 -3 -33 -3 -32 1925
0 c1897 0 1926 0 1926 19 0 15 -44 41 -204 120 -112 56 -209 101 -216 101 -8
0 -111 45 -229 99 -119 54 -287 127 -373 161 -87 34 -160 66 -163 71 -4 5 -57
43 -120 84 -63 41 -119 83 -124 94 -6 10 -15 58 -21 107 -10 87 -42 655 -41
724 1 29 11 43 71 98 38 35 69 66 68 70 -4 14 15 57 48 108 40 63 68 161 59
207 -17 80 -47 165 -70 197 -31 41 -31 59 -4 113 28 54 24 52 54 33 29 -19 29
-20 10 34 -8 23 -15 59 -15 79 0 36 0 36 65 55 64 18 128 53 77 43 -18 -4 -27
3 -49 41 -26 44 -83 191 -83 214 0 16 51 -19 87 -60 37 -42 41 -32 17 49 -21
72 -64 154 -108 209 -35 45 -36 45 -13 53 12 5 56 25 97 45 41 21 89 42 105
49 l30 12 -45 0 c-25 1 -73 8 -105 16 -111 28 -335 154 -335 188 0 21 118 85
178 98 30 6 69 9 87 7 19 -2 31 0 29 4 -3 4 -46 8 -95 8 -97 0 -208 -23 -294
-61 -47 -21 -50 -21 -60 -4 -45 77 -189 246 -226 266 -14 7 -33 2 -76 -20 -79
-39 -198 -81 -232 -81 -15 0 -74 16 -132 35 -140 48 -248 73 -387 91 -141 17
-174 17 -277 -4z m718 -1074 c96 -106 180 -174 264 -217 23 -11 52 -31 64 -44
20 -20 21 -20 15 -2 -4 11 -10 88 -13 170 l-5 150 42 -70 c23 -38 71 -109 107
-157 62 -84 64 -90 54 -119 -18 -53 -14 -66 13 -40 l23 22 28 -47 c35 -59 57
-161 41 -186 -9 -15 -25 -18 -88 -18 l-76 0 -11 51 c-13 61 -25 85 -59 122
l-26 27 30 2 c16 1 37 2 46 2 13 -1 15 3 8 11 -6 7 -45 18 -88 24 -77 13 -95
16 -209 46 -46 12 -83 14 -136 9 -41 -3 -77 -3 -80 2 -3 5 17 7 44 6 31 -3 49
0 49 7 0 6 -6 11 -14 11 -7 0 -39 38 -71 85 -60 90 -79 143 -89 255 l-6 65 23
-30 c12 -16 66 -78 120 -137z m-493 58 c0 -27 83 -178 133 -245 55 -72 172
-204 144 -161 -94 140 -197 343 -183 358 4 3 23 -10 44 -30 49 -47 162 -127
237 -168 33 -19 62 -35 63 -36 2 -1 -11 -16 -30 -32 -38 -35 -35 -47 10 -31
17 6 45 9 64 6 30 -3 29 -4 -9 -5 -24 -1 -43 -6 -43 -12 0 -5 19 -10 43 -10
86 0 88 -5 30 -65 -52 -54 -83 -123 -83 -186 0 -27 -1 -27 -37 -17 -20 5 -54
8 -75 5 l-37 -5 -16 57 c-34 115 -167 203 -282 186 -25 -4 -51 -9 -58 -11 -16
-7 -32 65 -41 180 -7 93 -5 99 63 189 41 53 63 65 63 33z m-135 -321 c26 -86
26 -90 9 -100 -10 -5 -41 -31 -68 -57 -27 -27 -56 -48 -64 -48 -22 0 -9 72 40
217 33 97 44 119 49 101 4 -13 19 -63 34 -113z m765 -15 l25 -8 -25 0 c-14 0
-36 4 -50 8 l-25 8 25 0 c14 0 36 -4 50 -8z m-43 -16 c-3 -3 -12 -4 -19 -1 -8
3 -5 6 6 6 11 1 17 -2 13 -5z m101 -39 c28 -4 52 -11 52 -16 0 -5 24 -9 53 -9
45 0 57 -4 79 -27 38 -42 59 -89 65 -150 l6 -55 -99 3 c-70 2 -106 -1 -124
-11 -14 -7 -27 -14 -30 -14 -12 -2 -48 -46 -41 -51 5 -2 23 0 42 6 34 10 218
13 228 4 12 -12 -61 -92 -110 -119 -188 -107 -416 72 -360 282 21 78 125 180
171 167 8 -2 39 -7 68 -10z m195 -12 c-7 -2 -19 -2 -25 0 -7 3 -2 5 12 5 14 0
19 -2 13 -5z m-898 -23 c-37 -12 -63 -16 -69 -10 -14 14 31 29 84 29 l45 0
-60 -19z m109 1 c4 -5 -4 -7 -16 -4 -15 3 -10 -2 12 -14 34 -19 58 -21 30 -3
-8 6 -10 10 -5 10 23 0 85 -64 109 -113 79 -162 -40 -355 -220 -357 -91 -1
-197 66 -230 145 -22 54 -27 135 -11 180 13 37 17 40 83 56 38 10 74 18 79 19
6 0 3 5 -5 10 -11 8 -7 9 14 4 19 -5 27 -3 22 4 -4 6 2 8 16 4 13 -3 19 -1 15
5 -4 6 3 8 18 5 15 -2 25 0 25 7 0 6 10 12 23 12 22 2 22 2 -1 6 -22 4 -23 5
-5 18 21 17 39 19 47 6z m-187 -27 c-8 -6 -97 -42 -97 -39 0 2 19 17 42 34 30
22 44 28 49 19 5 -7 7 -13 6 -14z m1512 -15 c25 -9 38 -24 61 -73 68 -145 66
-206 -13 -367 -70 -141 -137 -217 -184 -204 -15 5 -31 8 -35 7 -4 -1 -5 6 -4
16 16 87 18 93 30 89 16 -6 57 35 80 80 19 37 20 43 6 43 -5 0 -10 -6 -10 -14
0 -8 -6 -18 -12 -22 -7 -4 -10 -4 -7 0 4 4 0 28 -7 53 -8 26 -12 48 -10 50 2
2 14 -10 26 -26 32 -46 45 -38 14 9 -15 22 -30 37 -35 34 -9 -5 -29 36 -29 59
0 18 71 129 78 122 3 -3 0 -11 -6 -17 -7 -7 -12 -32 -11 -57 l1 -46 14 60 c8
32 12 65 10 71 -4 12 21 42 27 33 24 -33 41 -71 58 -125 11 -36 23 -63 26 -60
9 8 -37 149 -58 179 -17 23 -18 31 -9 45 7 9 -12 -8 -42 -40 -66 -70 -110
-151 -99 -181 5 -12 14 -46 21 -75 10 -45 10 -56 -4 -77 -31 -47 -94 -251 -81
-263 2 -3 7 7 11 22 6 27 19 32 42 18 9 -6 12 -44 11 -143 -1 -74 4 -172 9
-219 10 -79 35 -432 36 -510 1 -19 7 -41 14 -48 19 -20 15 -93 -8 -129 -11
-18 -35 -39 -54 -47 -19 -8 -58 -30 -88 -48 -59 -38 -328 -181 -370 -197 l-27
-10 49 142 c27 78 67 187 90 242 94 225 110 266 110 283 0 10 14 55 30 100 17
46 30 88 29 95 0 7 -3 5 -6 -3 -3 -8 -40 -105 -83 -215 -157 -401 -231 -600
-235 -632 -1 -13 -4 -26 -7 -28 -13 -13 -199 -55 -244 -55 -46 0 -58 5 -115
49 -35 27 -74 60 -87 73 -25 28 -21 54 9 63 21 7 25 20 9 30 -6 4 -8 10 -5 15
3 5 -1 12 -8 17 -8 4 -17 33 -20 63 -13 115 -36 237 -56 294 -12 33 -21 61
-21 63 0 3 16 -17 36 -44 20 -26 48 -60 62 -75 14 -16 20 -28 14 -28 -7 0 5
-21 25 -48 46 -60 66 -106 93 -211 12 -47 28 -96 35 -110 l14 -26 1 26 c0 37
-34 145 -81 252 -30 70 -34 86 -19 72 11 -10 23 -16 25 -13 3 3 -8 17 -25 32
l-32 26 26 0 c14 0 26 -3 26 -7 0 -9 201 -6 239 3 20 4 22 7 10 15 -10 6 -4 9
22 9 35 0 37 3 72 73 20 41 86 149 147 241 60 92 110 172 110 179 0 7 18 31
41 52 47 46 66 75 48 75 -6 0 -102 -91 -213 -203 -189 -191 -206 -205 -290
-247 -80 -40 -96 -44 -178 -48 l-90 -5 -51 55 c-29 30 -74 88 -101 128 -27 40
-58 80 -68 89 -11 9 -29 32 -40 51 -12 19 -47 73 -78 120 -31 47 -80 130 -110
185 -48 88 -56 114 -76 222 -11 67 -17 120 -13 117 5 -3 5 5 0 18 -4 13 -11
36 -15 52 l-7 29 37 -33 c21 -18 54 -39 73 -48 45 -19 144 -20 195 -3 54 19
131 93 152 146 19 52 54 69 54 27 0 -35 -37 -257 -50 -302 -12 -43 -13 -67 -1
-54 4 5 20 56 35 113 14 58 32 109 39 113 8 5 6 8 -6 8 -16 0 -18 6 -13 38 3
20 5 38 6 40 0 2 3 1 8 -2 4 -2 6 13 4 35 l-4 39 59 0 c54 0 61 -3 71 -24 38
-83 145 -149 242 -149 97 0 204 66 242 148 10 22 15 24 52 18 23 -3 51 -10 64
-14 25 -9 27 -6 12 21 -6 11 -29 25 -52 32 -41 12 -41 12 -14 19 16 5 50 5 77
2 44 -5 49 -8 55 -37 3 -17 13 -48 21 -69 l15 -37 21 42 c12 24 27 49 34 56 7
7 13 19 13 26 0 21 99 174 126 195 31 25 24 24 63 10z m-1659 -76 c0 -5 -5
-15 -10 -23 -8 -12 -10 -11 -10 8 0 12 5 22 10 22 6 0 10 -3 10 -7z m1178
-1073 c-7 -11 -17 -20 -22 -20 -5 0 -1 9 9 20 10 11 20 20 22 20 2 0 -2 -9 -9
-20z m-49 -67 c-6 -10 -39 -39 -73 -64 -64 -48 -99 -70 -81 -51 12 12 159 132
163 132 1 0 -3 -8 -9 -17z m-206 -208 c-10 -13 -27 -25 -37 -25 -22 0 -18 6
21 31 37 23 37 23 16 -6z m27 -5 c-12 -16 -24 -30 -26 -30 -3 0 4 14 16 30 12
17 24 30 26 30 3 0 -4 -13 -16 -30z m18 -55 c-12 -25 -28 -45 -36 -45 -8 0 -2
16 19 45 18 25 34 45 36 45 1 0 -7 -20 -19 -45z m-311 19 c-3 -3 -12 -4 -19
-1 -8 3 -5 6 6 6 11 1 17 -2 13 -5z m-33 -83 c-2 -3 -24 15 -47 38 l-42 44 47
-38 c26 -22 45 -41 42 -44z m229 52 c-7 -2 -19 -2 -25 0 -7 3 -2 5 12 5 14 0
19 -2 13 -5z m-60 -10 c-7 -2 -19 -2 -25 0 -7 3 -2 5 12 5 14 0 19 -2 13 -5z"/>
<path d="M2527 2179 c-20 -17 -42 -40 -48 -52 -7 -12 11 1 40 28 28 28 51 51
51 53 0 5 -7 0 -43 -29z"/>
<path d="M2550 2000 c0 -5 11 -10 24 -10 14 0 28 5 31 10 4 6 -7 10 -24 10
-17 0 -31 -4 -31 -10z"/>
<path d="M2043 2210 c28 -38 53 -68 55 -65 5 5 -91 134 -100 135 -4 0 16 -31
45 -70z"/>
<path d="M1966 2163 c21 -3 34 -11 37 -24 3 -10 11 -19 19 -18 10 0 10 2 1 6
-7 2 -13 13 -13 24 0 16 -7 19 -37 17 -36 -1 -36 -1 -7 -5z"/>
<path d="M1875 2080 c-65 -12 -130 -37 -174 -68 -20 -14 -28 -22 -19 -19 9 3
18 1 20 -5 3 -8 10 -8 23 -1 42 22 187 44 269 41 90 -3 107 8 51 35 -43 21
-110 27 -170 17z"/>
<path d="M1980 2000 c-13 -8 -13 -10 2 -10 9 0 20 5 23 10 8 13 -5 13 -25 0z"/>
<path d="M3246 2056 c-4 -21 -5 -40 -2 -43 7 -8 18 42 14 64 -3 11 -7 3 -12
-21z"/>
<path d="M2218 1963 c7 -3 16 -2 19 1 4 3 -2 6 -13 5 -11 0 -14 -3 -6 -6z"/>
<path d="M2254 1936 c-4 -25 -12 -36 -28 -39 -11 -3 8 -4 43 -3 48 1 67 5 75
18 14 23 -18 58 -55 58 -24 0 -29 -5 -35 -34z m76 9 c20 -24 4 -45 -35 -45
-36 0 -42 10 -29 44 8 20 48 21 64 1z"/>
<path d="M3287 1875 c-20 -38 -45 -83 -56 -100 -12 -16 -21 -37 -21 -45 0 -8
20 17 44 56 59 95 78 133 73 147 -2 7 -20 -19 -40 -58z"/>
<path d="M2121 1586 c27 -26 106 -86 113 -86 14 0 -15 30 -60 61 -35 24 -69
40 -53 25z"/>
<path d="M2266 1572 c-3 -5 18 -9 46 -9 32 0 46 2 37 8 -18 11 -76 12 -83 1z"/>
<path d="M2717 1430 c6 -49 9 -56 16 -43 2 4 -1 26 -9 48 l-12 40 5 -45z"/>
<path d="M2519 1429 c-14 -11 -47 -24 -75 -29 l-49 -9 54 4 c37 3 61 11 76 25
22 20 23 21 61 3 22 -9 41 -19 43 -20 7 -5 -33 -45 -54 -54 l-20 -8 20 0 c11
-1 35 8 53 19 46 28 42 62 -8 71 -19 3 -44 8 -55 12 -12 3 -30 -2 -46 -14z"/>
<path d="M2323 1383 c9 -2 23 -2 30 0 6 3 -1 5 -18 5 -16 0 -22 -2 -12 -5z"/>
<path d="M1987 1373 c-13 -12 -7 -40 12 -64 18 -23 25 -24 142 -26 89 -1 113
1 84 7 -22 5 -70 9 -107 9 -56 1 -69 4 -78 20 -17 33 -12 41 28 42 37 1 37 1
7 9 -40 10 -80 12 -88 3z"/>
<path d="M2250 1370 c-35 -7 -35 -7 -5 -9 17 0 37 4 45 9 17 11 11 11 -40 0z"/>
<path d="M2133 1353 c15 -2 39 -2 55 0 15 2 2 4 -28 4 -30 0 -43 -2 -27 -4z"/>
<path d="M2485 1319 c-22 -10 -29 -16 -15 -13 38 10 87 32 70 32 -8 0 -33 -8
-55 -19z"/>
<path d="M2388 1283 c7 -3 16 -2 19 1 4 3 -2 6 -13 5 -11 0 -14 -3 -6 -6z"/>
<path d="M2308 1273 c12 -2 32 -2 45 0 12 2 2 4 -23 4 -25 0 -35 -2 -22 -4z"/>
</g>
</svg>
