<?xml version="1.0" standalone="no"?>
<!DOCTYPE svg PUBLIC "-//W3C//DTD SVG 20010904//EN"
 "http://www.w3.org/TR/2001/REC-SVG-20010904/DTD/svg10.dtd">
<svg version="1.0" xmlns="http://www.w3.org/2000/svg"
 width="700.000000pt" height="700.000000pt" viewBox="0 0 700.000000 700.000000"
 preserveAspectRatio="xMidYMid meet">
<metadata>
Created by potrace 1.14, written by Peter Selinger 2001-2017
</metadata>
<g transform="translate(0.000000,700.000000) scale(0.100000,-0.100000)"
fill="#000000" stroke="none">
<path d="M4037 5244 c-1 -1 -45 -5 -98 -8 -52 -4 -106 -8 -120 -11 -13 -2 -45
-6 -71 -10 -26 -3 -53 -8 -60 -10 -7 -2 -31 -6 -53 -9 -44 -5 -144 -27 -242
-52 l-63 -17 0 -234 c0 -150 4 -232 10 -228 10 6 199 64 229 70 9 2 45 10 81
18 36 8 85 18 110 21 25 3 56 8 70 11 104 19 423 19 530 1 266 -46 446 -135
598 -295 129 -136 234 -353 267 -551 3 -19 8 -42 10 -50 2 -8 6 -36 10 -62 l6
-48 -961 0 -960 0 0 -204 0 -204 943 0 c518 -1 950 -1 960 -1 20 -1 20 1 1
-111 -10 -66 -36 -165 -60 -233 -27 -78 -75 -180 -86 -185 -5 -2 -8 -8 -8 -14
0 -19 -86 -132 -141 -185 -78 -76 -153 -129 -245 -174 -79 -38 -219 -84 -286
-94 -108 -16 -180 -20 -323 -19 -281 1 -409 21 -633 99 -56 19 -106 35 -112
35 -7 0 -10 -78 -10 -234 l0 -233 113 -26 c61 -15 123 -29 137 -31 14 -3 50
-9 80 -15 61 -12 101 -17 205 -28 93 -10 474 -10 550 0 33 4 76 10 95 12 194
24 460 126 635 243 142 96 294 248 386 387 97 145 182 351 219 530 40 191 45
245 45 495 -1 198 -15 362 -40 450 -2 8 -7 30 -10 49 -3 19 -10 42 -15 52 -6
10 -10 26 -10 37 0 25 -60 176 -108 271 -158 314 -451 568 -797 691 -202 71
-385 100 -653 104 -68 1 -124 1 -125 0z"/>
</g>
</svg>
